<svg width="20" height="20" viewBox="0 0 20 20" fill="none" xmlns="http://www.w3.org/2000/svg">
<mask id="mask0_454_108" style="mask-type:alpha" maskUnits="userSpaceOnUse" x="0" y="0" width="20" height="20">
<rect width="20" height="20" fill="#D9D9D9"/>
</mask>
<g mask="url(#mask0_454_108)">
<path d="M15.7671 11.1042H6.80794V8.89586H15.7671L14.4638 7.58065L16.0073 6.01898L19.9882 10L16.0073 13.9811L14.4638 12.4194L15.7671 11.1042ZM11.1929 7.22919V4.30794H4.30794V15.6921H11.1929V12.7709H13.4013V15.6921C13.4013 16.3074 13.187 16.8293 12.7586 17.2577C12.3301 17.6862 11.8082 17.9004 11.1929 17.9004H4.30794C3.69266 17.9004 3.17079 17.6862 2.74232 17.2577C2.31385 16.8293 2.09961 16.3074 2.09961 15.6921V4.30794C2.09961 3.69266 2.31385 3.17079 2.74232 2.74232C3.17079 2.31384 3.69266 2.09961 4.30794 2.09961H11.1929C11.8082 2.09961 12.3301 2.31384 12.7586 2.74232C13.187 3.17079 13.4013 3.69266 13.4013 4.30794V7.22919H11.1929Z" fill="white"/>
</g>
</svg>
