<svg width="20" height="20" viewBox="0 0 20 20" fill="none" xmlns="http://www.w3.org/2000/svg">
<mask id="mask0_527_32" style="mask-type:alpha" maskUnits="userSpaceOnUse" x="0" y="0" width="20" height="20">
<rect width="20" height="20" rx="4" fill="#D9D9D9"/>
</mask>
<g mask="url(#mask0_527_32)">
<path d="M10.0001 9.79974C8.96562 9.79974 8.08472 9.43606 7.35736 8.7087C6.63 7.98134 6.26632 7.10044 6.26632 6.06599C6.26632 5.03155 6.63 4.15266 7.35736 3.42932C8.08472 2.70585 8.96562 2.34412 10.0001 2.34412C11.0345 2.34412 11.9154 2.70585 12.6428 3.42932C13.3701 4.15266 13.7338 5.03155 13.7338 6.06599C13.7338 7.10044 13.3701 7.98134 12.6428 8.7087C11.9154 9.43606 11.0345 9.79974 10.0001 9.79974ZM5.69028 17.2672C4.16747 17.2672 2.93298 16.0328 2.93298 14.5099C2.93298 13.9647 3.07493 13.4635 3.35882 13.0064C3.64257 12.5495 4.01965 12.2007 4.49007 11.9602C5.37479 11.5217 6.27708 11.1909 7.19694 10.9679C8.11694 10.7447 9.05132 10.6331 10.0001 10.6331C10.9638 10.6331 11.9058 10.7427 12.8261 10.9618C13.7464 11.1811 14.641 11.51 15.5101 11.9483C15.9805 12.1877 16.3576 12.5349 16.6413 12.9897C16.9252 13.4446 17.0671 13.9511 17.0671 14.5093C17.0671 16.0325 15.8324 17.2672 14.3092 17.2672H5.69028Z" fill="white"/>
</g>
</svg>
